<svg width="17" height="17" viewBox="0 0 17 17" fill="none" xmlns="http://www.w3.org/2000/svg">
<path d="M5.8125 12C5.50184 12 5.25 12.2518 5.25 12.5625C5.25 12.8732 5.50184 13.125 5.8125 13.125H10.3125C10.6232 13.125 10.875 12.8732 10.875 12.5625C10.875 12.2518 10.6232 12 10.3125 12H5.8125Z" fill="white"/>
<path fill-rule="evenodd" clip-rule="evenodd" d="M8.0625 0C7.53141 0 7.0489 0.152115 6.52542 0.40668C6.01939 0.652759 5.43482 1.01557 4.70464 1.46874L3.15471 2.43067C2.46381 2.85946 1.91058 3.2028 1.48418 3.52936C1.04261 3.86752 0.703461 4.21192 0.458483 4.65947C0.214016 5.10609 0.103925 5.58131 0.0511425 6.14303C-1.07009e-05 6.68741 -5.82807e-06 7.35309 2.00409e-07 8.18792V9.39739C-1.02984e-05 10.8253 -1.85631e-05 11.9524 0.114528 12.8337C0.232029 13.7377 0.478922 14.4676 1.03677 15.0446C1.59719 15.6243 2.31034 15.8832 3.1932 16.006C4.04887 16.125 5.14167 16.125 6.51889 16.125H9.60607C10.9833 16.125 12.0761 16.125 12.9318 16.006C13.8147 15.8832 14.5278 15.6243 15.0882 15.0446C15.6461 14.4676 15.893 13.7377 16.0105 12.8337C16.125 11.9524 16.125 10.8253 16.125 9.3974V8.18791C16.125 7.3531 16.125 6.68739 16.0739 6.14303C16.0211 5.58131 15.911 5.10609 15.6665 4.65947C15.4215 4.21192 15.0824 3.86752 14.6408 3.52936C14.2144 3.2028 13.6612 2.85946 12.9703 2.43069L11.4203 1.46874C10.6902 1.01557 10.1056 0.652757 9.59958 0.40668C9.0761 0.152115 8.59359 0 8.0625 0ZM5.27215 2.44059C6.03397 1.96778 6.56962 1.63615 7.01741 1.4184C7.45367 1.20624 7.76264 1.125 8.0625 1.125C8.36237 1.125 8.67133 1.20624 9.10759 1.4184C9.55538 1.63615 10.091 1.96778 10.8529 2.44059L12.3529 3.37153C13.0735 3.81877 13.5794 4.13351 13.9568 4.42252C14.324 4.70373 14.5353 4.93579 14.6797 5.19964C14.8246 5.46442 14.9092 5.77399 14.9538 6.24828C14.9994 6.73394 15 7.34686 15 8.21544V9.35621C15 10.8344 14.9989 11.8884 14.8949 12.6887C14.7927 13.4747 14.6002 13.9308 14.2794 14.2626C13.9611 14.5918 13.5279 14.7873 12.7768 14.8918C12.0076 14.9987 10.9931 15 9.5625 15H6.5625C5.13185 15 4.11737 14.9987 3.34817 14.8918C2.59714 14.7873 2.16385 14.5918 1.84559 14.2626C1.52476 13.9308 1.33231 13.4747 1.23014 12.6887C1.12612 11.8884 1.125 10.8344 1.125 9.35621V8.21544C1.125 7.34686 1.12557 6.73394 1.17121 6.24828C1.21578 5.77399 1.30039 5.46442 1.44532 5.19964C1.58974 4.93579 1.80099 4.70373 2.16819 4.42252C2.54557 4.13351 3.05152 3.81877 3.77215 3.37153L5.27215 2.44059Z" fill="white"/>
</svg>
